<svg id="图层_1" data-name="图层 1" xmlns="http://www.w3.org/2000/svg" viewBox="0 0 176.09 40"><defs><style>.cls-1{fill:#fff;}.cls-2{fill:#4f83c4;}.cls-3{fill:#e0f2fc;}</style></defs><title>ETC-发票1</title><path class="cls-1" d="M2.56,8.56v2.08A1.53,1.53,0,0,1,4,12.26a1.53,1.53,0,0,1-1.41,1.62v1.53A1.53,1.53,0,0,1,4,17a1.53,1.53,0,0,1-1.41,1.62v1.5a1.64,1.64,0,0,1,0,3.24v1.7a1.64,1.64,0,0,1,0,3.24V30a1.63,1.63,0,0,1,0,3.23v2.42H32a5.41,5.41,0,0,0,5.41-5.41V8.56Z"/><path class="cls-2" d="M15.42,16.42H11.3l-.37,3.63h3.55L14.07,24H10.52l-.4,3.79h4.21l-.41,3.95H7.37l2-19.27h6.45Z"/><path class="cls-2" d="M23.55,16.45H21.26L19.68,31.74H17.35l1.58-15.29H16.54l.43-4h7Z"/><path class="cls-2" d="M29.12,17.48c-.34-1-.68-1.22-1-1.22s-.73.3-1,.81c-.33.73-.52,1.62-.88,5-.11,1.11-.27,2.78-.27,3.79S26.22,28,27,28s1-.67,1.24-1.21l1.33,3.16a3.21,3.21,0,0,1-2.65,2c-2.28,0-3.29-2.9-3.29-5.69a39.08,39.08,0,0,1,.3-4.11c.43-4.28.67-6,1.5-7.58s1.92-2.22,2.91-2.22c1.39,0,2.09,1.19,2.54,2.32Z"/><path class="cls-3" d="M32.71,3.24v22a5,5,0,0,1,4.71,5.18v-22a5,5,0,0,0-4.71-5.18Z"/><path class="cls-1" d="M53.13,18.1l-.63,1.22H64.73l-.27,2.18h-.07l.07,0a14.93,14.93,0,0,1-4.75,5.39,10.73,10.73,0,0,0,2.08.57,19.56,19.56,0,0,0,2.46.26L64,30a21,21,0,0,1-4-.34,11,11,0,0,1-3.27-1.19,20.35,20.35,0,0,1-3.23,1,28.79,28.79,0,0,1-3.64.6l.31-2.52c.77-.11,1.51-.24,2.21-.39a18.6,18.6,0,0,0,2-.54,17.2,17.2,0,0,1-2.91-4.33h3.28a10.68,10.68,0,0,0,2.42,3.06,11.2,11.2,0,0,0,2.17-1.65,12.87,12.87,0,0,0,1.8-2.25l0,0-9.79,0L47,30l-3.25.14L50,18.1H45.45l2.39-5.27h3l-1.32,2.92h1.68l1.51-2.92,3.24-.12-1.57,3h7.56l-.55-2.34h3.16L65.6,18.1H53.13Z"/><path class="cls-1" d="M73.62,14.75H67.35l.24-2h21l-.24,2h-6l-.12.91h5.44l0,.12-.19,1.58-.14,1.1a2.18,2.18,0,0,1-.74,1.41,2.2,2.2,0,0,1-1.49.58H67.37v-.1l.2-1.6.17-1.39.19-1.58,0-.12h5.55Zm1.8,10.84H66l.22-1.82h21L87,25.59H79l-.23,1.84a2.51,2.51,0,0,1-.34,1,3.44,3.44,0,0,1-.67.84,3.06,3.06,0,0,1-.91.56,2.67,2.67,0,0,1-1,.21h-3.5l.9-1.66h1.13a.82.82,0,0,0,.55-.21.86.86,0,0,0,.28-.55Zm-6.72.6h3.9l-2.89,3.28h-3.9Zm-1.29-4.91H86.68l-.23,1.82H67.19Zm3.42-2.53h2.3l.17-1.39H71Zm8.27-4H76.88l-.12.91H79Zm-2.72,4h2.23l.17-1.39H76.56Zm6.3,10.72-2.09-3.28h3.88l2.09,3.28ZM82,17.36l-.17,1.39h1.72a.49.49,0,0,0,.34-.14.48.48,0,0,0,.17-.32l.11-.93Z"/><path class="cls-1" d="M96.29,12.79a1.6,1.6,0,0,1,1.27.55A1.65,1.65,0,0,1,98,14.68L96.29,28.13A2.46,2.46,0,0,1,96,29a2.09,2.09,0,0,1-.47.6A1.79,1.79,0,0,1,95,30a1.52,1.52,0,0,1-.52.11H91.65l.89-1.61h.39c.08,0,.13,0,.16-.05l.09-.09a1.47,1.47,0,0,0,.07-.17l.38-3.09h-2.3L91,27.74l-.81,2.33h-2.8l.72-2.33,1.83-14.95h6.35Zm-3.74,2.37-.32,2.58h2.3l.23-1.84a.69.69,0,0,0-.15-.53.69.69,0,0,0-.53-.21Zm1.37,7.53.32-2.58h-2.3l-.32,2.58Zm7.56-3.27h8.4l-.28,2.32a6.92,6.92,0,0,1-.84,2.5,12.27,12.27,0,0,1-1.64,2.26,7.82,7.82,0,0,0,.82.4l1,.37-.35,2.8a9.12,9.12,0,0,1-3.84-1.63,11.78,11.78,0,0,1-4.22,1.63l.34-2.8,1.06-.37a10,10,0,0,0,.93-.4,7.31,7.31,0,0,1-1-2,7.68,7.68,0,0,1-.37-2.2h2.88a6.52,6.52,0,0,0,.8,2.41,6.76,6.76,0,0,0,.92-1.34,12.49,12.49,0,0,0,.72-1.67h-5.63l-.7,5.77-1.11,2.56H96.06l1.11-2.66,1.51-12.25.16-1.37.13-1h11.7l-.42,3.4a2.56,2.56,0,0,1-.33,1,3.1,3.1,0,0,1-.66.83,3.15,3.15,0,0,1-.91.56,2.65,2.65,0,0,1-1,.2h-4.14l.69-2.08h2.27a.74.74,0,0,0,.55-.23A.86.86,0,0,0,107,16l.09-.79h-5Z"/><path class="cls-1" d="M131.1,22.24c-1.53-.06-3.17-.18-4.93-.35a44.67,44.67,0,0,1-5.25-.8,48.54,48.54,0,0,1-5.42.8c-1.8.17-3.47.29-5,.35l.29-2.35c.92-.06,1.79-.12,2.61-.19s1.6-.13,2.34-.21a14.36,14.36,0,0,1-2.34-1.25,8.89,8.89,0,0,1-1.81-1.55h4.55a20.12,20.12,0,0,0,2.47,1.13,21.33,21.33,0,0,0,2.63.81,27.4,27.4,0,0,0,3.29-1,28.21,28.21,0,0,0,3.2-1.41H111.4l2.24-3.44h3l-.86,1.29H132.1l-.27,2.15a11.16,11.16,0,0,1-2.36,1.83,21.09,21.09,0,0,1-2.94,1.43c.72.08,1.49.15,2.29.21s1.66.13,2.57.19Zm-.32,5.5a2.45,2.45,0,0,1-.29.89,3,3,0,0,1-.56.72,2.64,2.64,0,0,1-.78.49,2.41,2.41,0,0,1-.9.18h-5.36l1.33-2.08h2.83a.83.83,0,0,0,.55-.22.82.82,0,0,0,.28-.55l.27-2.15H117.57l-4.16,5h-3.54l4.18-5h-3.56l.22-1.87h4.89l1-1.17h3.55l-1,1.17h12.23l-.55,4.52Z"/><path class="cls-1" d="M153.09,25.59h-8.83l-.55,4.4h-3.32l.54-4.4h-8.86l.08-.62.2-1.61v-.11h8.86l1-8h-8.06l0-.36.2-1.6.05-.38h19.43l-.05.38-.19,1.6-.05.36h-8l-1,8.05h8.83v.11l-.2,1.61ZM139,22.31h-2.88l-.55-6h2.87Zm8.23,0,2.12-6h2.87l-2.12,6Z"/><path class="cls-1" d="M155,20.13l5.5-7.2h3.38l-3.71,4.86h10.72L169,13.89h3.2l3.24,6.79h-3.19l-.26-.55H155Zm19,7.52a2.4,2.4,0,0,1-.29.88,2.48,2.48,0,0,1-.57.71,2.63,2.63,0,0,1-.77.48,2.41,2.41,0,0,1-.9.18H154.18l.29-2.32.48-3.95,0-.29.25-2.06h19.51v0l-.28,2.3Zm-3-4H158.45L158,27.58h11.78a.77.77,0,0,0,.55-.22.87.87,0,0,0,.29-.55Z"/></svg>